<svg role="img" viewBox="0 0 24 24" xmlns="http://www.w3.org/2000/svg">
  <title>Live Stream</title>
  <path d="M12 10c-1.1 0-2 .9-2 2s.9 2 2 2 2-.9 2-2-.9-2-2-2zm6 0c0 3.31-2.69 6-6 6s-6-2.69-6-6c0-.55-.45-1-1-1s-1 .45-1 1c0 4.42 3.58 8 8 8s8-3.58 8-8c0-.55-.45-1-1-1s-1 .45-1 1zm-6-6c-4.42 0-8 3.58-8 8 0 .55.45 1 1 1s1-.45 1-1c0-3.31 2.69-6 6-6s6 2.69 6 6c0 .55.45 1 1 1s1-.45 1-1c0-4.42-3.58-8-8-8zm0 4c-2.21 0-4 1.79-4 4 0 .55.45 1 1 1s1-.45 1-1c0-1.1.9-2 2-2s2 .9 2 2c0 .55.45 1 1 1s1-.45 1-1c0-2.21-1.79-4-4-4z"/>
</svg>
